
<svg xmlns="http://www.w3.org/2000/svg" style="display:none">

  
  <symbol id="bus" viewBox="0 0 24 24" fill="none" stroke="currentColor" stroke-width="1.75" stroke-linecap="round" stroke-linejoin="round">
    <path d="M4 16V6a2 2 0 0 1 2-2h12a2 2 0 0 1 2 2v10"></path>
    <rect x="3" y="16" width="18" height="3" rx="1"></rect>
    <circle cx="7.5" cy="19.5" r="1.5"></circle>
    <circle cx="16.5" cy="19.5" r="1.5"></circle>
    <path d="M6 7h12M6 11h12"></path>
  </symbol>

  
  <symbol id="pin" viewBox="0 0 24 24" fill="none" stroke="currentColor" stroke-width="1.75" stroke-linecap="round" stroke-linejoin="round">
    <path d="M12 21s7-6.5 7-12a7 7 0 1 0-14 0c0 5.5 7 12 7 12z"></path>
    <circle cx="12" cy="9" r="2.5"></circle>
  </symbol>

  
  <symbol id="clock" viewBox="0 0 24 24" fill="none" stroke="currentColor" stroke-width="1.75" stroke-linecap="round" stroke-linejoin="round">
    <circle cx="12" cy="12" r="9"></circle>
    <path d="M12 7v5l3 2"></path>
  </symbol>

  
  <symbol id="search" viewBox="0 0 24 24" fill="none" stroke="currentColor" stroke-width="1.75" stroke-linecap="round" stroke-linejoin="round">
    <circle cx="11" cy="11" r="7"></circle>
    <path d="m20 20-3.5-3.5"></path>
  </symbol>

  
  <symbol id="user" viewBox="0 0 24 24" fill="none" stroke="currentColor" stroke-width="1.75" stroke-linecap="round" stroke-linejoin="round">
    <circle cx="12" cy="8" r="4"></circle>
    <path d="M4 20c0-4 3.5-7 8-7s8 3 8 7"></path>
  </symbol>

  
  <symbol id="users" viewBox="0 0 24 24" fill="none" stroke="currentColor" stroke-width="1.75" stroke-linecap="round" stroke-linejoin="round">
    <circle cx="9" cy="8" r="3.5"></circle>
    <path d="M2 20c0-3.5 3-6 7-6s7 2.5 7 6"></path>
    <path d="M16 11.5a3.5 3.5 0 0 0 0-7"></path>
    <path d="M18 20c0-3-1.5-5.5-4-6.5"></path>
  </symbol>

  
  <symbol id="home" viewBox="0 0 24 24" fill="none" stroke="currentColor" stroke-width="1.75" stroke-linecap="round" stroke-linejoin="round">
    <path d="M3 11 12 4l9 7"></path>
    <path d="M5 10v9a1 1 0 0 0 1 1h12a1 1 0 0 0 1-1v-9"></path>
    <path d="M10 20v-6h4v6"></path>
  </symbol>

  
  <symbol id="chat" viewBox="0 0 24 24" fill="none" stroke="currentColor" stroke-width="1.75" stroke-linecap="round" stroke-linejoin="round">
    <path d="M4 5h16a1 1 0 0 1 1 1v10a1 1 0 0 1-1 1h-8l-4 4v-4H4a1 1 0 0 1-1-1V6a1 1 0 0 1 1-1z"></path>
  </symbol>

  
  <symbol id="close" viewBox="0 0 24 24" fill="none" stroke="currentColor" stroke-width="1.75" stroke-linecap="round" stroke-linejoin="round">
    <path d="m6 6 12 12M18 6 6 18"></path>
  </symbol>

  
  <symbol id="back" viewBox="0 0 24 24" fill="none" stroke="currentColor" stroke-width="1.75" stroke-linecap="round" stroke-linejoin="round">
    <path d="M15 18 9 12l6-6"></path>
  </symbol>

  
  <symbol id="chevron-right" viewBox="0 0 24 24" fill="none" stroke="currentColor" stroke-width="1.75" stroke-linecap="round" stroke-linejoin="round">
    <path d="m9 6 6 6-6 6"></path>
  </symbol>

  
  <symbol id="plus" viewBox="0 0 24 24" fill="none" stroke="currentColor" stroke-width="1.75" stroke-linecap="round" stroke-linejoin="round">
    <path d="M12 5v14M5 12h14"></path>
  </symbol>

  
  <symbol id="check" viewBox="0 0 24 24" fill="none" stroke="currentColor" stroke-width="1.75" stroke-linecap="round" stroke-linejoin="round">
    <path d="m5 12 5 5 9-11"></path>
  </symbol>

  
  <symbol id="more" viewBox="0 0 24 24" fill="none" stroke="currentColor" stroke-width="1.75" stroke-linecap="round" stroke-linejoin="round">
    <circle cx="12" cy="6" r="1"></circle><circle cx="12" cy="12" r="1"></circle><circle cx="12" cy="18" r="1"></circle>
  </symbol>

  
  <symbol id="star" viewBox="0 0 24 24" fill="none" stroke="currentColor" stroke-width="1.75" stroke-linecap="round" stroke-linejoin="round">
    <path d="m12 3 2.6 5.8 6.4.6-4.8 4.3 1.4 6.3L12 17l-5.6 2.9L7.8 13.7 3 9.4l6.4-.6L12 3z"></path>
  </symbol>

  
  <symbol id="navigation" viewBox="0 0 24 24" fill="none" stroke="currentColor" stroke-width="1.75" stroke-linecap="round" stroke-linejoin="round">
    <path d="m12 3 8 18-8-5-8 5 8-18z"></path>
  </symbol>

  
  <symbol id="bell" viewBox="0 0 24 24" fill="none" stroke="currentColor" stroke-width="1.75" stroke-linecap="round" stroke-linejoin="round">
    <path d="M6 10a6 6 0 1 1 12 0c0 4 2 5 2 7H4c0-2 2-3 2-7z"></path>
    <path d="M10 21a2 2 0 0 0 4 0"></path>
  </symbol>

  
  <symbol id="eye" viewBox="0 0 24 24" fill="none" stroke="currentColor" stroke-width="1.75" stroke-linecap="round" stroke-linejoin="round">
    <path d="M2 12s3.5-7 10-7 10 7 10 7-3.5 7-10 7S2 12 2 12z"></path>
    <circle cx="12" cy="12" r="3"></circle>
  </symbol>

  
  <symbol id="eye-off" viewBox="0 0 24 24" fill="none" stroke="currentColor" stroke-width="1.75" stroke-linecap="round" stroke-linejoin="round">
    <path d="M4 4 20 20"></path>
    <path d="M9.5 5.2A10.3 10.3 0 0 1 12 5c6.5 0 10 7 10 7a18 18 0 0 1-3 4"></path>
    <path d="M6 7a18.5 18.5 0 0 0-4 5s3.5 7 10 7c1.6 0 3.1-.4 4.4-1"></path>
    <path d="M10.6 10.6a2 2 0 0 0 2.8 2.8"></path>
  </symbol>

  
  <symbol id="settings" viewBox="0 0 24 24" fill="none" stroke="currentColor" stroke-width="1.75" stroke-linecap="round" stroke-linejoin="round">
    <circle cx="12" cy="12" r="3"></circle>
    <path d="M19.4 15a1.6 1.6 0 0 0 .3 1.7l.1.1a2 2 0 1 1-2.8 2.8l-.1-.1a1.6 1.6 0 0 0-1.7-.3 1.6 1.6 0 0 0-1 1.5V21a2 2 0 0 1-4 0v-.1a1.6 1.6 0 0 0-1-1.5 1.6 1.6 0 0 0-1.7.3l-.1.1a2 2 0 1 1-2.8-2.8l.1-.1a1.6 1.6 0 0 0 .3-1.7 1.6 1.6 0 0 0-1.5-1H3a2 2 0 0 1 0-4h.1a1.6 1.6 0 0 0 1.5-1 1.6 1.6 0 0 0-.3-1.7l-.1-.1a2 2 0 1 1 2.8-2.8l.1.1a1.6 1.6 0 0 0 1.7.3H9a1.6 1.6 0 0 0 1-1.5V3a2 2 0 0 1 4 0v.1a1.6 1.6 0 0 0 1 1.5 1.6 1.6 0 0 0 1.7-.3l.1-.1a2 2 0 1 1 2.8 2.8l-.1.1a1.6 1.6 0 0 0-.3 1.7V9a1.6 1.6 0 0 0 1.5 1H21a2 2 0 0 1 0 4h-.1a1.6 1.6 0 0 0-1.5 1z"></path>
  </symbol>

  
  <symbol id="broadcast" viewBox="0 0 24 24" fill="none" stroke="currentColor" stroke-width="1.75" stroke-linecap="round" stroke-linejoin="round">
    <circle cx="12" cy="12" r="2"></circle>
    <path d="M8.5 15.5a5 5 0 0 1 0-7"></path>
    <path d="M15.5 8.5a5 5 0 0 1 0 7"></path>
    <path d="M5.5 18.5a9 9 0 0 1 0-13"></path>
    <path d="M18.5 5.5a9 9 0 0 1 0 13"></path>
  </symbol>

  
  <symbol id="mail" viewBox="0 0 24 24" fill="none" stroke="currentColor" stroke-width="1.75" stroke-linecap="round" stroke-linejoin="round">
    <rect x="3" y="5" width="18" height="14" rx="2"></rect>
    <path d="m3 7 9 6 9-6"></path>
  </symbol>

  
  <symbol id="lock" viewBox="0 0 24 24" fill="none" stroke="currentColor" stroke-width="1.75" stroke-linecap="round" stroke-linejoin="round">
    <rect x="4" y="10" width="16" height="11" rx="2"></rect>
    <path d="M8 10V7a4 4 0 1 1 8 0v3"></path>
  </symbol>

  
  <symbol id="trash" viewBox="0 0 24 24" fill="none" stroke="currentColor" stroke-width="1.75" stroke-linecap="round" stroke-linejoin="round">
    <path d="M4 7h16"></path>
    <path d="M9 7V5a2 2 0 0 1 2-2h2a2 2 0 0 1 2 2v2"></path>
    <path d="M6 7v12a2 2 0 0 0 2 2h8a2 2 0 0 0 2-2V7"></path>
  </symbol>

  
  <symbol id="filter" viewBox="0 0 24 24" fill="none" stroke="currentColor" stroke-width="1.75" stroke-linecap="round" stroke-linejoin="round">
    <path d="M3 5h18l-7 9v6l-4-2v-4L3 5z"></path>
  </symbol>

  
  <symbol id="refresh" viewBox="0 0 24 24" fill="none" stroke="currentColor" stroke-width="1.75" stroke-linecap="round" stroke-linejoin="round">
    <path d="M3 12a9 9 0 0 1 15-6.7L21 8"></path>
    <path d="M21 3v5h-5"></path>
    <path d="M21 12a9 9 0 0 1-15 6.7L3 16"></path>
    <path d="M3 21v-5h5"></path>
  </symbol>

</svg>